# xmcd
#
# Track frame offsets:
#	150
#	16533
#	34808
#	53841
#	68937
#	86710
#	105025
#	124132
#	140630
#	155506
#	171189
#	190056
#	204000
#
# Disc length: 2999 seconds
#
# Revision: 0
# Processed by: cddbd v1.5.2PL0 Copyright (c) Steve Scherf et al.
# Submitted via: audiograbber 1.83.01
#
DISCID=a10bb50d
DTITLE=Manic Drive - Reset and Rewind
DYEAR=2007
DGENRE=Rock
TTITLE0=NYC Gangsters
TTITLE1=Eleven Regrets
TTITLE2=Blue (feat. Kevin Max)
TTITLE3=Dancefloor (feat. MOC)
TTITLE4=Obvious
TTITLE5=Hope (feat. Jill Parr)
TTITLE6=December Mourning
TTITLE7=Better Man
TTITLE8=Addiction
TTITLE9=Change
TTITLE10=L-O-V-E
TTITLE11=The End
TTITLE12=The Inventor
EXTD=
EXTT0=
EXTT1=
EXTT2=
EXTT3=
EXTT4=
EXTT5=
EXTT6=
EXTT7=
EXTT8=
EXTT9=
EXTT10=
EXTT11=
EXTT12=
PLAYORDER=
